<svg version="1.1" viewBox="0.0 0.0 549.5643044619422 118.61417322834646" fill="none" stroke="none" stroke-linecap="square" stroke-miterlimit="10" xmlns:xlink="http://www.w3.org/1999/xlink" xmlns="http://www.w3.org/2000/svg"><clipPath id="p.0"><path d="m0 0l549.56433 0l0 118.614174l-549.56433 0l0 -118.614174z" clip-rule="nonzero"/></clipPath><g clip-path="url(#p.0)"><path fill="#000000" fill-opacity="0.0" d="m0 0l549.56433 0l0 118.614174l-549.56433 0z" fill-rule="evenodd"/><path fill="#000000" fill-opacity="0.0" d="m-9.850393 -18.080053l302.86615 0l0 129.29134l-302.86615 0z" fill-rule="evenodd"/><path fill="#000000" d="m73.04023 78.05369q-1.8125 0 -3.046875 -1.21875q-1.21875 -1.234375 -1.21875 -3.046875l0 -26.015621q0 -5.890625 -3.0 -9.015625q-2.984375 -3.140625 -7.796875 -3.140625q-4.984375 0 -8.203125 3.453125q-3.21875 3.4375 -3.21875 8.890625l-7.0625 0q0 -5.90625 2.53125 -10.4375q2.546875 -4.53125 7.078125 -7.062502q4.53125 -2.546875 10.328125 -2.546875q5.265625 0 9.296875 2.359375q4.03125 2.359377 6.296875 6.812502q2.265625 4.4375 2.265625 10.6875l0 26.015621q0 1.8125 -1.1875 3.046875q-1.171875 1.21875 -3.0625 1.21875zm-61.46875 0q-1.90625 0 -3.09375 -1.21875q-1.1718755 -1.234375 -1.1718755 -3.046875l0 -41.062496q0 -1.9062519 1.1718755 -3.078127q1.1875 -1.1875 3.09375 -1.1875q1.90625 0 3.078125 1.1875q1.1875 1.171875 1.1875 3.078127l0 41.062496q0 1.8125 -1.1875 3.046875q-1.171875 1.21875 -3.078125 1.21875zm30.828123 0q-1.90625 0 -3.09375 -1.21875q-1.171875 -1.234375 -1.171875 -3.046875l0 -26.015621q0 -5.890625 -3.0 -9.015625q-2.984375 -3.140625 -7.796873 -3.140625q-4.984375 0 -8.25 3.40625q-3.25 3.40625 -3.25 8.75l-5.53125 0q0.078125 -5.796875 2.4375 -10.28125q2.359375 -4.5 6.53125 -7.031252q4.171875 -2.546875 9.515625 -2.546875q5.265623 0 9.296873 2.359375q4.03125 2.359377 6.25 6.812502q2.21875 4.4375 2.21875 10.6875l0 26.015621q0 1.8125 -1.140625 3.046875q-1.125 1.21875 -3.015625 1.21875zm55.557556 -0.09375q-1.890625 0 -3.078125 -1.171875q-1.171875 -1.1875 -1.171875 -3.09375l0 -41.062496q0 -1.9062519 1.171875 -3.078127q1.1875 -1.1875 3.078125 -1.1875q1.90625 0 3.078125 1.1875q1.1875 1.171875 1.1875 3.078127l0 41.062496q0 1.90625 -1.1875 3.09375q-1.171875 1.171875 -3.078125 1.171875zm0 -58.109375q-2.265625 0 -3.953125 -1.671875q-1.671875 -1.6875 -1.671875 -3.953124q0 -2.4375 1.671875 -4.03125q1.6875 -1.59375 3.953125 -1.59375q2.265625 0 3.9375 1.59375q1.6875 1.59375 1.6875 4.03125q0 2.265624 -1.640625 3.953124q-1.625 1.671875 -3.984375 1.671875zm63.734337 58.203125q-1.8125 0 -3.03125 -1.21875q-1.21875 -1.234375 -1.21875 -3.046875l0 -22.749996q0 -5.265625 -1.953125 -8.65625q-1.953125 -3.40625 -5.359375 -5.078125q-3.390625 -1.6875 -7.65625 -1.6875q-4.078125 0 -7.296875 1.640625q-3.21875 1.625 -5.125 4.34375q-1.890625 2.71875 -1.890625 6.171875l-5.5312576 0q0.078125 -5.71875 2.890625 -10.203125q2.8125076 -4.484375 7.6093826 -7.062502q4.8125 -2.59375 10.796875 -2.59375q6.25 0 11.234375 2.6875q5.0 2.671877 7.890625 7.843752q2.90625 5.15625 2.90625 12.59375l0 22.749996q0 1.8125 -1.234375 3.046875q-1.21875 1.21875 -3.03125 1.21875zm-37.796883 0q-1.90625 0 -3.09375 -1.21875q-1.171875 -1.234375 -1.171875 -3.046875l0 -41.156246q0 -1.9062519 1.171875 -3.078127q1.1875 -1.1875 3.09375 -1.1875q1.90625 0 3.078125 1.1875q1.1875076 1.171875 1.1875076 3.078127l0 41.156246q0 1.8125 -1.1875076 3.046875q-1.171875 1.21875 -3.078125 1.21875zm79.86503 0.265625q-7.0625 0 -12.734375 -3.296875q-5.671875 -3.3125 -8.984375 -9.015625q-3.296875 -5.718746 -3.296875 -12.890621q0 -7.15625 3.078125 -12.8125q3.078125 -5.671875 8.421875 -8.984377q5.359375 -3.3125 12.0625 -3.3125q5.625 0 10.296875 2.3125q4.671875 2.312502 7.65625 6.296877l0 -25.203125q0 -1.90625 1.21875 -3.078125q1.234375 -1.171875 3.046875 -1.171875q1.90625 0 3.078125 1.171875q1.171875 1.171875 1.171875 3.078125l0 41.796875q0 7.15625 -3.3125 12.874996q-3.296875 5.703125 -8.96875 8.96875q-5.65625 3.265625 -12.734375 3.265625zm0 -7.515625q4.890625 0 8.65625 -2.3125q3.765625 -2.3125 5.984375 -6.343746q2.21875 -4.046875 2.21875 -9.03125q0 -5.078125 -2.21875 -9.015625q-2.21875 -3.9375 -5.984375 -6.25q-3.765625 -2.3125 -8.65625 -2.3125q-4.71875 0 -8.578125 2.3125q-3.84375 2.3125 -6.0625 6.25q-2.21875 3.9375 -2.21875 9.015625q0 4.984375 2.21875 9.03125q2.21875 4.031246 6.0625 6.343746q3.859375 2.3125 8.578125 2.3125z" fill-rule="nonzero"/><path fill="#000000" fill-opacity="0.0" d="m242.39108 3.7467191l103.77951 0l0 85.637794l-103.77951 0z" fill-rule="evenodd"/><path fill="#000000" d="m281.2817 78.02359q-6.0625 0 -11.140625 -2.03125q-5.078125 -2.015625 -8.796875 -5.734375q-3.71875 -3.71875 -5.75 -8.796871q-2.015625 -5.09375 -2.015625 -11.15625q0 -6.0625 2.015625 -11.140625q2.03125 -5.09375 5.75 -8.8125q3.71875 -3.71875 8.796875 -5.734375q5.078125 -2.015625 11.140625 -2.015625q6.078125 0 11.15625 2.015625q5.078125 2.015625 8.796875 5.734375q3.71875 3.71875 5.734375 8.8125q2.03125 5.078125 2.03125 11.140625q0 5.03125 -1.40625 8.9375q-1.390625 3.90625 -3.84375 6.109371q-2.453125 2.21875 -5.6875 2.21875q-2.953125 0 -4.84375 -1.640625q-1.875 -1.625 -1.875 -4.421871l0 -2.296875q-1.03125 1.8125 -2.734375 3.234375q-1.6875 1.421875 -3.71875 2.2343712q-2.015625 0.8125 -4.046875 0.8125q-4.3125 0 -7.625 -1.9531212q-3.296875 -1.96875 -5.1875 -5.390625q-1.890625 -3.421875 -1.890625 -7.84375q0 -4.484375 1.96875 -7.890625q1.96875 -3.421875 5.390625 -5.359375q3.421875 -1.9375 7.78125 -1.9375q4.484375 0 7.890625 1.9375q3.421875 1.9375 5.359375 5.359375q1.953125 3.40625 1.953125 7.890625l0 8.96875q0 1.46875 0.484375 2.265625q0.5 0.796875 1.53125 0.796875q1.484375 0 2.6875 -1.53125q1.203125 -1.53125 1.90625 -4.265625q0.71875 -2.734375 0.71875 -6.234375q0 -4.96875 -1.640625 -9.0625q-1.640625 -4.109375 -4.6875 -7.140625q-3.03125 -3.03125 -7.125 -4.671875q-4.09375 -1.640625 -9.078125 -1.640625q-4.90625 0 -9.046875 1.640625q-4.125 1.640625 -7.125 4.671875q-3.0 3.03125 -4.640625 7.140625q-1.640625 4.09375 -1.640625 9.0625q0 4.921875 1.640625 9.046875q1.640625 4.125 4.640625 7.124996q3.0 3.015625 7.125 4.65625q4.140625 1.640625 9.046875 1.640625q2.296875 0 4.890625 -0.53125q2.609375 -0.515625 4.40625 -1.328125q1.703125 -0.875 2.78125 -0.25q1.09375 0.625 1.09375 2.484375q0 1.375 -1.6875 2.46875q-1.6875 1.09375 -4.640625 1.75q-2.953125 0.65625 -6.84375 0.65625zm0 -17.828121q2.953125 0 5.171875 -1.25q2.21875 -1.265625 3.5 -3.5q1.28125 -2.25 1.28125 -5.140625q0 -2.953125 -1.28125 -5.15625q-1.28125 -2.21875 -3.5 -3.5q-2.21875 -1.296875 -5.171875 -1.296875q-2.9375 0 -5.15625 1.296875q-2.21875 1.28125 -3.484375 3.5q-1.25 2.203125 -1.25 5.15625q0 2.890625 1.25 5.140625q1.265625 2.234375 3.484375 3.5q2.21875 1.25 5.15625 1.25z" fill-rule="nonzero"/><path fill="#000000" fill-opacity="0.0" d="m316.28085 -35.548557l624.85034 0l0 147.05511l-624.85034 0z" fill-rule="evenodd"/><path fill="#000000" d="m356.46835 74.930824q-7.4375 0 -13.25 -3.21875q-5.796875 -3.21875 -9.0625 -8.875004q-3.25 -5.671875 -3.25 -13.015625q0 -7.4375 3.078125 -13.09375q3.078125 -5.671875 8.5625 -8.890625q5.484375 -3.21875 12.5625 -3.21875q6.984375 0 12.09375 3.125q5.125 3.125 7.84375 8.609375q2.71875 5.484375 2.71875 12.65625q0 1.625 -1.09375 2.671875q-1.078125 1.046875 -2.796875 1.046875l-37.171875 0l0 -6.796875l37.265625 0l-3.8125 2.625q0 -4.8125 -1.8125 -8.5625q-1.8125 -3.765625 -5.171875 -5.9375q-3.34375 -2.1875 -8.0625 -2.1875q-5.171875 0 -8.9375 2.3125q-3.75 2.3125 -5.703125 6.390625q-1.953125 4.078125 -1.953125 9.25q0 5.171875 2.3125 9.203125q2.3125 4.03125 6.34375 6.343754q4.03125 2.3125 9.296875 2.3125q2.984375 0 6.015625 -1.078125q3.046875 -1.09375 4.953125 -2.546875q1.265625 -0.9062538 2.71875 -0.9531288q1.453125 -0.046875 2.53125 0.859375q1.453125 1.2656288 1.546875 2.7656288q0.09375 1.5 -1.359375 2.578125q-2.984375 2.453125 -7.609375 4.046875q-4.625 1.578125 -8.796875 1.578125zm52.302887 0q-6.703125 0 -12.0625 -3.265625q-5.34375 -3.265625 -8.421875 -8.968754q-3.078125 -5.71875 -3.078125 -12.875q0 -7.25 3.296875 -12.90625q3.3125 -5.671875 8.984375 -8.984375q5.671875 -3.3125 12.734375 -3.3125q7.15625 0 12.78125 3.3125q5.625 3.3125 8.921875 9.03125q3.3125 5.703125 3.3125 12.859375l-3.25 0.71875q0 6.890625 -3.046875 12.421875q-3.03125 5.531254 -8.25 8.750004q-5.203125 3.21875 -11.921875 3.21875zm1.453125 -7.515625q4.890625 0 8.65625 -2.3125q3.765625 -2.3125038 5.984375 -6.296879q2.21875 -4.0 2.21875 -8.984375q0 -5.078125 -2.21875 -9.0625q-2.21875 -3.984375 -5.984375 -6.296875q-3.765625 -2.3125 -8.65625 -2.3125q-4.71875 0 -8.578125 2.3125q-3.84375 2.3125 -6.0625 6.296875q-2.21875 3.984375 -2.21875 9.0625q0 4.984375 2.21875 8.984375q2.21875 3.984375 6.0625 6.296879q3.859375 2.3125 8.578125 2.3125zm20.765625 7.25q-1.8125 0 -3.046875 -1.21875q-1.21875 -1.234375 -1.21875 -3.046875l0 -14.406254l1.71875 -8.796875l6.796875 2.625l0 20.578129q0 1.8125 -1.171875 3.046875q-1.171875 1.21875 -3.078125 1.21875zm35.799286 0.265625q-5.984375 0 -11.328125 -1.890625q-5.34375 -1.90625 -8.421875 -5.09375q-1.28125 -1.359375 -1.0625 -3.03125q0.234375 -1.6718788 1.6875 -2.7656288q1.640625 -1.265625 3.265625 -1.078125q1.625 0.171875 2.71875 1.4375q1.8125 2.0000038 5.25 3.4531288q3.453125 1.453125 7.71875 1.453125q5.703125 0 8.5625 -1.90625q2.859375 -1.9062538 2.953125 -4.812504q0 -2.890625 -2.8125 -4.921875q-2.8125 -2.046875 -9.890625 -3.328125q-9.15625 -1.71875 -13.328125 -5.34375q-4.15625 -3.625 -4.15625 -8.796875q0 -4.625 2.625 -7.65625q2.625 -3.03125 6.84375 -4.53125q4.21875 -1.5 8.921875 -1.5q5.984375 0 10.5625 1.953125q4.578125 1.953125 7.296875 5.390625q1.09375 1.359375 1.0 2.8125q-0.09375 1.453125 -1.53125 2.453125q-1.28125 0.90625 -3.09375 0.59375q-1.8125 -0.328125 -3.078125 -1.5q-2.265625 -2.359375 -4.984375 -3.3125q-2.71875 -0.953125 -6.34375 -0.953125q-4.359375 0 -7.171875 1.59375q-2.796875 1.578125 -2.796875 4.390625q0 1.71875 0.9375 3.125q0.953125 1.40625 3.53125 2.5q2.59375 1.078125 7.578125 1.984375q6.796875 1.265625 10.734375 3.40625q3.953125 2.125 5.625 4.890625q1.6875 2.765625 1.6875 6.296875q0 4.265629 -2.3125 7.578129q-2.3125 3.3125 -6.625 5.21875q-4.296875 1.890625 -10.5625 1.890625zm54.401337 0q-7.4375 0 -13.25 -3.21875q-5.796875 -3.21875 -9.0625 -8.875004q-3.25 -5.671875 -3.25 -13.015625q0 -7.4375 3.078125 -13.09375q3.078125 -5.671875 8.5625 -8.890625q5.484375 -3.21875 12.5625 -3.21875q6.984375 0 12.09375 3.125q5.125 3.125 7.84375 8.609375q2.71875 5.484375 2.71875 12.65625q0 1.625 -1.09375 2.671875q-1.078125 1.046875 -2.796875 1.046875l-37.171875 0l0 -6.796875l37.265625 0l-3.8125 2.625q0 -4.8125 -1.8125 -8.5625q-1.8125 -3.765625 -5.171875 -5.9375q-3.34375 -2.1875 -8.0625 -2.1875q-5.171875 0 -8.9375 2.3125q-3.75 2.3125 -5.703125 6.390625q-1.953125 4.078125 -1.953125 9.25q0 5.171875 2.3125 9.203125q2.3125 4.03125 6.34375 6.343754q4.03125 2.3125 9.296875 2.3125q2.984375 0 6.015625 -1.078125q3.046875 -1.09375 4.953125 -2.546875q1.265625 -0.9062538 2.71875 -0.9531288q1.453125 -0.046875 2.53125 0.859375q1.453125 1.2656288 1.546875 2.7656288q0.09375 1.5 -1.359375 2.578125q-2.984375 2.453125 -7.609375 4.046875q-4.625 1.578125 -8.796875 1.578125z" fill-rule="nonzero"/><path fill="#000000" fill-opacity="0.0" d="m81.58793 80.80577l394.4882 0l0 45.25985l-394.4882 0z" fill-rule="evenodd"/><path fill="#000000" d="m95.1973 110.285774q-0.921875 0 -1.625 -0.5q-0.703125 -0.5 -1.09375 -1.359375q-0.390625 -0.875 -0.390625 -2.0l0 -11.8125q0 -0.453125 0.265625 -0.71875q0.265625 -0.265625 0.703125 -0.265625q0.453125 0 0.71875 0.265625q0.265625 0.265625 0.265625 0.71875l0 11.8125q0 0.828125 0.3125 1.359375q0.328125 0.53125 0.84375 0.53125l0.53125 0q0.40625 0 0.640625 0.28125q0.234375 0.265625 0.234375 0.703125q0 0.453125 -0.359375 0.71875q-0.359375 0.265625 -0.921875 0.265625l-0.125 0zm8.364868 0.078125q-1.75 0 -3.125 -0.75q-1.359375 -0.75 -2.125 -2.078125q-0.765625 -1.34375 -0.765625 -3.078125q0 -1.75 0.71875 -3.078125q0.71875 -1.328125 2.015625 -2.078125q1.296875 -0.765625 2.953125 -0.765625q1.640625 0 2.84375 0.734375q1.203125 0.734375 1.84375 2.03125q0.640625 1.28125 0.640625 2.96875q0 0.390625 -0.25 0.640625q-0.25 0.234375 -0.65625 0.234375l-8.75 0l0 -1.59375l8.765625 0l-0.890625 0.609375q0 -1.125 -0.4375 -2.0q-0.421875 -0.890625 -1.21875 -1.40625q-0.78125 -0.515625 -1.890625 -0.515625q-1.21875 0 -2.109375 0.546875q-0.875 0.546875 -1.34375 1.515625q-0.453125 0.953125 -0.453125 2.15625q0 1.21875 0.546875 2.171875q0.546875 0.953125 1.484375 1.5q0.953125 0.53125 2.203125 0.53125q0.703125 0 1.40625 -0.25q0.71875 -0.265625 1.171875 -0.59375q0.296875 -0.21875 0.640625 -0.21875q0.34375 -0.015625 0.59375 0.1875q0.34375 0.296875 0.359375 0.65625q0.015625 0.34375 -0.3125 0.609375q-0.703125 0.578125 -1.796875 0.953125q-1.09375 0.359375 -2.0625 0.359375zm12.306747 0q-1.578125 0 -2.84375 -0.765625q-1.265625 -0.765625 -1.984375 -2.109375q-0.71875 -1.34375 -0.71875 -3.03125q0 -1.703125 0.765625 -3.03125q0.78125 -1.328125 2.109375 -2.109375q1.34375 -0.78125 3.0 -0.78125q1.6875 0 3.0 0.78125q1.328125 0.78125 2.109375 2.125q0.78125 1.34375 0.78125 3.015625l-0.765625 0.171875q0 1.625 -0.71875 2.9375q-0.703125 1.296875 -1.9375 2.046875q-1.21875 0.75 -2.796875 0.75zm0.328125 -1.765625q1.15625 0 2.03125 -0.53125q0.890625 -0.546875 1.40625 -1.484375q0.53125 -0.953125 0.53125 -2.125q0 -1.1875 -0.53125 -2.125q-0.515625 -0.9375 -1.40625 -1.484375q-0.875 -0.546875 -2.03125 -0.546875q-1.109375 0 -2.015625 0.546875q-0.90625 0.546875 -1.4375 1.484375q-0.515625 0.9375 -0.515625 2.125q0 1.171875 0.515625 2.125q0.53125 0.9375 1.4375 1.484375q0.90625 0.53125 2.015625 0.53125zm4.890625 1.703125q-0.421875 0 -0.71875 -0.28125q-0.28125 -0.28125 -0.28125 -0.71875l0 -3.390625l0.40625 -2.0625l1.59375 0.609375l0 4.84375q0 0.4375 -0.28125 0.71875q-0.265625 0.28125 -0.71875 0.28125zm5.167877 -7.265625q0.015625 -1.296875 0.640625 -2.3125q0.625 -1.03125 1.6874924 -1.625q1.0625 -0.609375 2.3125 -0.609375q1.171875 0 1.765625 0.375q0.609375 0.375 0.46875 0.921875q-0.078125 0.3125 -0.265625 0.46875q-0.171875 0.140625 -0.4375 0.15625q-0.25 0.015625 -0.546875 -0.046875q-1.328125 -0.203125 -2.359375 0.078125q-1.03125 0.265625 -1.6406174 0.9375q-0.59375 0.65625 -0.59375 1.65625l-1.03125 0zm0.0625 7.25q-0.46875 0 -0.734375 -0.234375q-0.25 -0.25 -0.25 -0.75l0 -9.703125q0 -0.46875 0.25 -0.71875q0.265625 -0.265625 0.734375 -0.265625q0.484375 0 0.71875 0.25q0.25 0.25 0.25 0.734375l0 9.703125q0 0.46875 -0.25 0.734375q-0.234375 0.25 -0.71875 0.25zm19.079796 0.015625q-0.421875 0 -0.71875 -0.28125q-0.28125 -0.28125 -0.28125 -0.71875l0 -5.34375q0 -1.25 -0.46875 -2.046875q-0.453125 -0.796875 -1.25 -1.1875q-0.796875 -0.390625 -1.796875 -0.390625q-0.96875 0 -1.734375 0.390625q-0.75 0.375 -1.203125 1.015625q-0.4375 0.640625 -0.4375 1.4375l-1.296875 0q0.015625 -1.34375 0.671875 -2.390625q0.671875 -1.0625 1.796875 -1.65625q1.140625 -0.609375 2.546875 -0.609375q1.46875 0 2.640625 0.625q1.171875 0.625 1.84375 1.84375q0.6875 1.21875 0.6875 2.96875l0 5.34375q0 0.4375 -0.28125 0.71875q-0.28125 0.28125 -0.71875 0.28125zm-8.890625 0q-0.453125 0 -0.734375 -0.28125q-0.265625 -0.28125 -0.265625 -0.71875l0 -9.6875q0 -0.4375 0.265625 -0.71875q0.28125 -0.28125 0.734375 -0.28125q0.453125 0 0.71875 0.28125q0.28125 0.28125 0.28125 0.71875l0 9.6875q0 0.4375 -0.28125 0.71875q-0.265625 0.28125 -0.71875 0.28125zm29.642975 0q-0.421875 0 -0.71875 -0.28125q-0.28125 -0.28125 -0.28125 -0.71875l0 -5.34375q0 -1.25 -0.46875 -2.046875q-0.453125 -0.796875 -1.25 -1.1875q-0.796875 -0.390625 -1.796875 -0.390625q-0.96875 0 -1.734375 0.390625q-0.75 0.375 -1.203125 1.015625q-0.4375 0.640625 -0.4375 1.4375l-1.296875 0q0.015625 -1.34375 0.671875 -2.390625q0.671875 -1.0625 1.796875 -1.65625q1.140625 -0.609375 2.546875 -0.609375q1.46875 0 2.640625 0.625q1.171875 0.625 1.84375 1.84375q0.6875 1.21875 0.6875 2.96875l0 5.34375q0 0.4375 -0.28125 0.71875q-0.28125 0.28125 -0.71875 0.28125zm-8.890625 0q-0.453125 0 -0.734375 -0.28125q-0.265625 -0.28125 -0.265625 -0.71875l0 -9.6875q0 -0.4375 0.265625 -0.71875q0.28125 -0.28125 0.734375 -0.28125q0.453125 0 0.71875 0.28125q0.28125 0.28125 0.28125 0.71875l0 9.6875q0 0.4375 -0.28125 0.71875q-0.265625 0.28125 -0.71875 0.28125zm0 -4.4375q-0.453125 0 -0.734375 -0.28125q-0.265625 -0.28125 -0.265625 -0.71875l0 -10.234375q0 -0.453125 0.265625 -0.71875q0.28125 -0.28125 0.734375 -0.28125q0.453125 0 0.71875 0.28125q0.28125 0.265625 0.28125 0.71875l0 10.234375q0 0.4375 -0.28125 0.71875q-0.265625 0.28125 -0.71875 0.28125zm18.805756 4.5q-1.703125 0 -3.03125 -0.75q-1.328125 -0.75 -2.09375 -2.078125q-0.75 -1.34375 -0.75 -3.078125q0 -1.75 0.75 -3.078125q0.765625 -1.328125 2.09375 -2.078125q1.328125 -0.765625 3.03125 -0.765625q1.71875 0 3.03125 0.765625q1.328125 0.75 2.09375 2.078125q0.765625 1.328125 0.765625 3.078125q0 1.734375 -0.765625 3.078125q-0.75 1.328125 -2.078125 2.078125q-1.3125 0.75 -3.046875 0.75zm0 -1.765625q1.15625 0 2.046875 -0.53125q0.90625 -0.53125 1.40625 -1.453125q0.515625 -0.9375 0.515625 -2.15625q0 -1.203125 -0.515625 -2.140625q-0.5 -0.953125 -1.40625 -1.484375q-0.890625 -0.53125 -2.046875 -0.53125q-1.140625 0 -2.046875 0.53125q-0.890625 0.53125 -1.40625 1.484375q-0.515625 0.9375 -0.515625 2.140625q0 1.21875 0.515625 2.15625q0.515625 0.921875 1.40625 1.453125q0.90625 0.53125 2.046875 0.53125zm11.152878 1.6875q-0.3125 0 -0.578125 -0.171875q-0.25 -0.1875 -0.359375 -0.46875l-3.21875 -9.640625q-0.140625 -0.625 0.03125 -1.0q0.171875 -0.390625 0.71875 -0.390625q0.359375 0 0.609375 0.203125q0.265625 0.203125 0.421875 0.65625l2.765625 8.640625l-0.65625 0l2.625 -8.75q0.078125 -0.3125 0.3125 -0.53125q0.25 -0.21875 0.65625 -0.21875q0.390625 0 0.625 0.203125q0.25 0.203125 0.34375 0.546875l2.265625 8.3125l-0.34375 0l2.640625 -8.203125q0.28125 -0.859375 1.0 -0.859375q0.5625 0 0.765625 0.40625q0.203125 0.390625 -0.015625 0.984375l-3.21875 9.640625q-0.09375 0.28125 -0.34375 0.46875q-0.25 0.171875 -0.578125 0.171875q-0.3125 0 -0.59375 -0.171875q-0.28125 -0.1875 -0.359375 -0.46875l-2.359375 -8.40625l0.21875 0l-2.421875 8.40625q-0.09375 0.28125 -0.359375 0.46875q-0.25 0.171875 -0.59375 0.171875zm23.548904 0q-1.078125 0 -1.953125 -0.546875q-0.859375 -0.546875 -1.359375 -1.46875q-0.5 -0.921875 -0.5 -2.125l0 -10.25q0 -0.4375 0.265625 -0.703125q0.28125 -0.28125 0.71875 -0.28125q0.4375 0 0.71875 0.28125q0.28125 0.265625 0.28125 0.703125l0 10.25q0 0.9375 0.515625 1.5625q0.53125 0.609375 1.3125 0.609375l0.6875 0q0.359375 0 0.609375 0.28125q0.25 0.28125 0.25 0.703125q0 0.4375 -0.328125 0.71875q-0.3125 0.265625 -0.8125 0.265625l-0.40625 0zm-4.921875 -9.53125q-0.40625 0 -0.671875 -0.25q-0.25 -0.25 -0.25 -0.578125q0 -0.40625 0.25 -0.640625q0.265625 -0.234375 0.671875 -0.234375l5.09375 0q0.40625 0 0.65625 0.234375q0.265625 0.234375 0.265625 0.640625q0 0.328125 -0.265625 0.578125q-0.25 0.25 -0.65625 0.25l-5.09375 0zm14.411987 9.609375q-1.703125 0 -3.03125 -0.75q-1.328125 -0.75 -2.09375 -2.078125q-0.75 -1.34375 -0.75 -3.078125q0 -1.75 0.75 -3.078125q0.765625 -1.328125 2.09375 -2.078125q1.328125 -0.765625 3.03125 -0.765625q1.71875 0 3.03125 0.765625q1.328125 0.75 2.09375 2.078125q0.765625 1.328125 0.765625 3.078125q0 1.734375 -0.765625 3.078125q-0.75 1.328125 -2.078125 2.078125q-1.3125 0.75 -3.046875 0.75zm0 -1.765625q1.15625 0 2.046875 -0.53125q0.90625 -0.53125 1.40625 -1.453125q0.515625 -0.9375 0.515625 -2.15625q0 -1.203125 -0.515625 -2.140625q-0.5 -0.953125 -1.40625 -1.484375q-0.890625 -0.53125 -2.046875 -0.53125q-1.140625 0 -2.046875 0.53125q-0.890625 0.53125 -1.40625 1.484375q-0.515625 0.9375 -0.515625 2.140625q0 1.21875 0.515625 2.15625q0.515625 0.921875 1.40625 1.453125q0.90625 0.53125 2.046875 0.53125zm18.073288 1.6875q-0.921875 0 -1.625 -0.5q-0.703125 -0.5 -1.09375 -1.359375q-0.390625 -0.875 -0.390625 -2.0l0 -11.8125q0 -0.453125 0.265625 -0.71875q0.265625 -0.265625 0.703125 -0.265625q0.453125 0 0.71875 0.265625q0.265625 0.265625 0.265625 0.71875l0 11.8125q0 0.828125 0.3125 1.359375q0.328125 0.53125 0.84375 0.53125l0.53125 0q0.40625 0 0.640625 0.28125q0.234375 0.265625 0.234375 0.703125q0 0.453125 -0.359375 0.71875q-0.359375 0.265625 -0.921875 0.265625l-0.125 0zm4.8329926 0q-0.4375 0 -0.71875 -0.265625q-0.28125 -0.28125 -0.28125 -0.734375l0 -9.671875q0 -0.4375 0.28125 -0.71875q0.28125 -0.28125 0.71875 -0.28125q0.453125 0 0.734375 0.28125q0.28125 0.28125 0.28125 0.71875l0 9.671875q0 0.453125 -0.28125 0.734375q-0.28125 0.265625 -0.734375 0.265625zm0 -13.671875q-0.53125 0 -0.9375 -0.390625q-0.390625 -0.390625 -0.390625 -0.9375q0 -0.5625 0.390625 -0.9375q0.40625 -0.375 0.9375 -0.375q0.53125 0 0.921875 0.375q0.40625 0.375 0.40625 0.9375q0 0.546875 -0.390625 0.9375q-0.390625 0.390625 -0.9375 0.390625zm9.074554 13.65625q-0.625 0 -0.9375 -0.640625l-4.609375 -9.703125q-0.15625 -0.34375 -0.03125 -0.671875q0.140625 -0.34375 0.515625 -0.5q0.34375 -0.171875 0.6875 -0.046875q0.34375 0.109375 0.515625 0.4375l4.328125 9.34375l-0.984375 0l4.2812653 -9.34375q0.171875 -0.328125 0.53125 -0.4375q0.375 -0.125 0.75 0.046875q0.34375 0.140625 0.46875 0.484375q0.125 0.34375 -0.03125 0.65625l-4.5781403 9.734375q-0.296875 0.640625 -0.90625 0.640625zm12.756973 0.09375q-1.75 0 -3.125 -0.75q-1.359375 -0.75 -2.125 -2.078125q-0.765625 -1.34375 -0.765625 -3.078125q0 -1.75 0.71875 -3.078125q0.71875 -1.328125 2.015625 -2.078125q1.296875 -0.765625 2.953125 -0.765625q1.640625 0 2.84375 0.734375q1.203125 0.734375 1.84375 2.03125q0.640625 1.28125 0.640625 2.96875q0 0.390625 -0.25 0.640625q-0.25 0.234375 -0.65625 0.234375l-8.75 0l0 -1.59375l8.765625 0l-0.890625 0.609375q0 -1.125 -0.4375 -2.0q-0.421875 -0.890625 -1.21875 -1.40625q-0.78125 -0.515625 -1.890625 -0.515625q-1.21875 0 -2.109375 0.546875q-0.875 0.546875 -1.34375 1.515625q-0.453125 0.953125 -0.453125 2.15625q0 1.21875 0.546875 2.171875q0.546875 0.953125 1.484375 1.5q0.953125 0.53125 2.203125 0.53125q0.703125 0 1.40625 -0.25q0.71875 -0.265625 1.171875 -0.59375q0.296875 -0.21875 0.640625 -0.21875q0.34375 -0.015625 0.59375 0.1875q0.34375 0.296875 0.359375 0.65625q0.015625 0.34375 -0.3125 0.609375q-0.703125 0.578125 -1.796875 0.953125q-1.09375 0.359375 -2.0625 0.359375zm29.482574 -0.0625q-0.421875 0 -0.71875 -0.28125q-0.28125 -0.28125 -0.28125 -0.71875l0 -6.125q0 -1.375 -0.703125 -2.109375q-0.703125 -0.734375 -1.828125 -0.734375q-1.171875 0 -1.9375 0.8125q-0.75 0.796875 -0.75 2.078125l-1.671875 0q0 -1.390625 0.59375 -2.453125q0.609375 -1.0625 1.671875 -1.65625q1.0625 -0.59375 2.4375 -0.59375q1.234375 0 2.171875 0.546875q0.953125 0.546875 1.484375 1.59375q0.546875 1.046875 0.546875 2.515625l0 6.125q0 0.4375 -0.28125 0.71875q-0.28125 0.28125 -0.734375 0.28125zm-14.453125 0q-0.453125 0 -0.734375 -0.28125q-0.265625 -0.28125 -0.265625 -0.71875l0 -9.65625q0 -0.453125 0.265625 -0.71875q0.28125 -0.28125 0.734375 -0.28125q0.453125 0 0.71875 0.28125q0.28125 0.265625 0.28125 0.71875l0 9.65625q0 0.4375 -0.28125 0.71875q-0.265625 0.28125 -0.71875 0.28125zm7.25 0q-0.453125 0 -0.734375 -0.28125q-0.265625 -0.28125 -0.265625 -0.71875l0 -6.125q0 -1.375 -0.703125 -2.109375q-0.703125 -0.734375 -1.828125 -0.734375q-1.1875 0 -1.953125 0.796875q-0.765625 0.796875 -0.765625 2.046875l-1.296875 0q0.015625 -1.359375 0.5625 -2.40625q0.5625 -1.0625 1.546875 -1.65625q0.984375 -0.59375 2.234375 -0.59375q1.25 0 2.1875 0.546875q0.953125 0.546875 1.46875 1.59375q0.53125 1.046875 0.53125 2.515625l0 6.125q0 0.4375 -0.265625 0.71875q-0.265625 0.28125 -0.71875 0.28125zm17.101105 0.0625q-1.703125 0 -3.03125 -0.75q-1.328125 -0.75 -2.09375 -2.078125q-0.75 -1.34375 -0.75 -3.078125q0 -1.75 0.75 -3.078125q0.765625 -1.328125 2.09375 -2.078125q1.328125 -0.765625 3.03125 -0.765625q1.71875 0 3.03125 0.765625q1.328125 0.75 2.09375 2.078125q0.765625 1.328125 0.765625 3.078125q0 1.734375 -0.765625 3.078125q-0.75 1.328125 -2.078125 2.078125q-1.3125 0.75 -3.046875 0.75zm0 -1.765625q1.15625 0 2.046875 -0.53125q0.90625 -0.53125 1.40625 -1.453125q0.515625 -0.9375 0.515625 -2.15625q0 -1.203125 -0.515625 -2.140625q-0.5 -0.953125 -1.40625 -1.484375q-0.890625 -0.53125 -2.046875 -0.53125q-1.140625 0 -2.046875 0.53125q-0.890625 0.53125 -1.40625 1.484375q-0.515625 0.9375 -0.515625 2.140625q0 1.21875 0.515625 2.15625q0.515625 0.921875 1.40625 1.453125q0.90625 0.53125 2.046875 0.53125zm10.058502 -5.5625q0.015625 -1.296875 0.640625 -2.3125q0.625 -1.03125 1.6875 -1.625q1.0625 -0.609375 2.3125 -0.609375q1.171875 0 1.765625 0.375q0.609375 0.375 0.46875 0.921875q-0.078125 0.3125 -0.265625 0.46875q-0.171875 0.140625 -0.4375 0.15625q-0.25 0.015625 -0.546875 -0.046875q-1.328125 -0.203125 -2.359375 0.078125q-1.03125 0.265625 -1.640625 0.9375q-0.59375 0.65625 -0.59375 1.65625l-1.03125 0zm0.0625 7.25q-0.46875 0 -0.734375 -0.234375q-0.25 -0.25 -0.25 -0.75l0 -9.703125q0 -0.46875 0.25 -0.71875q0.265625 -0.265625 0.734375 -0.265625q0.484375 0 0.71875 0.25q0.25 0.25 0.25 0.734375l0 9.703125q0 0.46875 -0.25 0.734375q-0.234375 0.25 -0.71875 0.25zm13.757721 0.078125q-1.75 0 -3.125 -0.75q-1.359375 -0.75 -2.125 -2.078125q-0.765625 -1.34375 -0.765625 -3.078125q0 -1.75 0.71875 -3.078125q0.71875 -1.328125 2.015625 -2.078125q1.296875 -0.765625 2.953125 -0.765625q1.640625 0 2.84375 0.734375q1.203125 0.734375 1.84375 2.03125q0.640625 1.28125 0.640625 2.96875q0 0.390625 -0.25 0.640625q-0.25 0.234375 -0.65625 0.234375l-8.75 0l0 -1.59375l8.765625 0l-0.890625 0.609375q0 -1.125 -0.4375 -2.0q-0.421875 -0.890625 -1.21875 -1.40625q-0.78125 -0.515625 -1.890625 -0.515625q-1.21875 0 -2.109375 0.546875q-0.875 0.546875 -1.34375 1.515625q-0.453125 0.953125 -0.453125 2.15625q0 1.21875 0.546875 2.171875q0.546875 0.953125 1.484375 1.5q0.953125 0.53125 2.203125 0.53125q0.703125 0 1.40625 -0.25q0.71875 -0.265625 1.171875 -0.59375q0.296875 -0.21875 0.640625 -0.21875q0.34375 -0.015625 0.59375 0.1875q0.34375 0.296875 0.359375 0.65625q0.015625 0.34375 -0.3125 0.609375q-0.703125 0.578125 -1.796875 0.953125q-1.09375 0.359375 -2.0625 0.359375zm29.482544 -0.0625q-0.421875 0 -0.71875 -0.28125q-0.28125 -0.28125 -0.28125 -0.71875l0 -6.125q0 -1.375 -0.703125 -2.109375q-0.703125 -0.734375 -1.828125 -0.734375q-1.171875 0 -1.9375 0.8125q-0.75 0.796875 -0.75 2.078125l-1.671875 0q0 -1.390625 0.59375 -2.453125q0.609375 -1.0625 1.671875 -1.65625q1.0625 -0.59375 2.4375 -0.59375q1.234375 0 2.171875 0.546875q0.953125 0.546875 1.484375 1.59375q0.546875 1.046875 0.546875 2.515625l0 6.125q0 0.4375 -0.28125 0.71875q-0.28125 0.28125 -0.734375 0.28125zm-14.453125 0q-0.453125 0 -0.734375 -0.28125q-0.265625 -0.28125 -0.265625 -0.71875l0 -9.65625q0 -0.453125 0.265625 -0.71875q0.28125 -0.28125 0.734375 -0.28125q0.453125 0 0.71875 0.28125q0.28125 0.265625 0.28125 0.71875l0 9.65625q0 0.4375 -0.28125 0.71875q-0.265625 0.28125 -0.71875 0.28125zm7.25 0q-0.453125 0 -0.734375 -0.28125q-0.265625 -0.28125 -0.265625 -0.71875l0 -6.125q0 -1.375 -0.703125 -2.109375q-0.703125 -0.734375 -1.828125 -0.734375q-1.1875 0 -1.953125 0.796875q-0.765625 0.796875 -0.765625 2.046875l-1.296875 0q0.015625 -1.359375 0.5625 -2.40625q0.5625 -1.0625 1.546875 -1.65625q0.984375 -0.59375 2.234375 -0.59375q1.25 0 2.1875 0.546875q0.953125 0.546875 1.46875 1.59375q0.53125 1.046875 0.53125 2.515625l0 6.125q0 0.4375 -0.265625 0.71875q-0.265625 0.28125 -0.71875 0.28125zm13.069855 -0.015625q-0.4375 0 -0.71875 -0.265625q-0.28125 -0.28125 -0.28125 -0.734375l0 -9.671875q0 -0.4375 0.28125 -0.71875q0.28125 -0.28125 0.71875 -0.28125q0.453125 0 0.734375 0.28125q0.28125 0.28125 0.28125 0.71875l0 9.671875q0 0.453125 -0.28125 0.734375q-0.28125 0.265625 -0.734375 0.265625zm0 -13.671875q-0.53125 0 -0.9375 -0.390625q-0.390625 -0.390625 -0.390625 -0.9375q0 -0.5625 0.390625 -0.9375q0.40625 -0.375 0.9375 -0.375q0.53125 0 0.921875 0.375q0.40625 0.375 0.40625 0.9375q0 0.546875 -0.390625 0.9375q-0.390625 0.390625 -0.9375 0.390625zm14.996429 13.6875q-0.421875 0 -0.71875 -0.28125q-0.28125 -0.28125 -0.28125 -0.71875l0 -5.34375q0 -1.25 -0.46875 -2.046875q-0.453125 -0.796875 -1.25 -1.1875q-0.796875 -0.390625 -1.796875 -0.390625q-0.96875 0 -1.734375 0.390625q-0.75 0.375 -1.203125 1.015625q-0.4375 0.640625 -0.4375 1.4375l-1.296875 0q0.015625 -1.34375 0.671875 -2.390625q0.671875 -1.0625 1.796875 -1.65625q1.140625 -0.609375 2.546875 -0.609375q1.46875 0 2.640625 0.625q1.171875 0.625 1.84375 1.84375q0.6875 1.21875 0.6875 2.96875l0 5.34375q0 0.4375 -0.28125 0.71875q-0.28125 0.28125 -0.71875 0.28125zm-8.890625 0q-0.453125 0 -0.734375 -0.28125q-0.265625 -0.28125 -0.265625 -0.71875l0 -9.6875q0 -0.4375 0.265625 -0.71875q0.28125 -0.28125 0.734375 -0.28125q0.453125 0 0.71875 0.28125q0.28125 0.28125 0.28125 0.71875l0 9.6875q0 0.4375 -0.28125 0.71875q-0.265625 0.28125 -0.71875 0.28125zm18.784424 0.0625q-1.65625 0 -3.0 -0.765625q-1.328125 -0.78125 -2.109375 -2.125q-0.765625 -1.34375 -0.765625 -3.03125q0 -1.6875 0.71875 -3.015625q0.71875 -1.328125 1.984375 -2.109375q1.265625 -0.78125 2.84375 -0.78125q1.3125 0 2.40625 0.546875q1.109375 0.53125 1.8125 1.484375l0 -5.9375q0 -0.453125 0.28125 -0.71875q0.296875 -0.28125 0.71875 -0.28125q0.453125 0 0.71875 0.28125q0.28125 0.265625 0.28125 0.71875l0 9.828125q0 1.6875 -0.78125 3.03125q-0.78125 1.34375 -2.109375 2.109375q-1.328125 0.765625 -3.0 0.765625zm0 -1.765625q1.15625 0 2.03125 -0.53125q0.890625 -0.546875 1.40625 -1.5q0.53125 -0.953125 0.53125 -2.125q0 -1.1875 -0.53125 -2.109375q-0.515625 -0.9375 -1.40625 -1.484375q-0.875 -0.546875 -2.03125 -0.546875q-1.109375 0 -2.015625 0.546875q-0.90625 0.546875 -1.4375 1.484375q-0.515625 0.921875 -0.515625 2.109375q0 1.171875 0.515625 2.125q0.53125 0.953125 1.4375 1.5q0.90625 0.53125 2.015625 0.53125zm11.046326 1.6875q-0.375 0 -0.671875 -0.265625q-0.28125 -0.28125 -0.28125 -0.734375l0 -10.625q0 -1.515625 0.578125 -2.640625q0.578125 -1.140625 1.625 -1.765625q1.0625 -0.625 2.515625 -0.625q0.421875 0 0.703125 0.265625q0.296875 0.25 0.296875 0.625q0 0.390625 -0.296875 0.65625q-0.28125 0.265625 -0.703125 0.265625q-0.859375 0 -1.46875 0.390625q-0.609375 0.375 -0.9375 1.0625q-0.3125 0.671875 -0.3125 1.59375l0 10.796875q0 0.453125 -0.28125 0.734375q-0.265625 0.265625 -0.765625 0.265625zm-2.015625 -9.53125q-0.40625 0 -0.671875 -0.25q-0.25 -0.25 -0.25 -0.578125q0 -0.40625 0.25 -0.640625q0.265625 -0.234375 0.671875 -0.234375l5.375 0q0.40625 0 0.65625 0.234375q0.25 0.234375 0.25 0.640625q0 0.328125 -0.25 0.578125q-0.25 0.25 -0.65625 0.25l-5.375 0zm13.499329 9.640625q-1.5 0 -2.671875 -0.625q-1.171875 -0.640625 -1.859375 -1.84375q-0.671875 -1.21875 -0.671875 -2.96875l0 -5.359375q0 -0.421875 0.28125 -0.703125q0.296875 -0.296875 0.71875 -0.296875q0.421875 0 0.703125 0.296875q0.296875 0.28125 0.296875 0.703125l0 5.359375q0 1.234375 0.46875 2.03125q0.46875 0.796875 1.265625 1.203125q0.8125 0.390625 1.8125 0.390625q0.953125 0 1.703125 -0.375q0.765625 -0.390625 1.203125 -1.03125q0.453125 -0.640625 0.453125 -1.453125l1.28125 0q-0.015625 1.328125 -0.6875 2.390625q-0.65625 1.0625 -1.78125 1.671875q-1.109375 0.609375 -2.515625 0.609375zm4.6875 -0.109375q-0.421875 0 -0.703125 -0.265625q-0.28125 -0.28125 -0.28125 -0.734375l0 -9.6875q0 -0.453125 0.28125 -0.71875q0.28125 -0.28125 0.703125 -0.28125q0.453125 0 0.71875 0.28125q0.28125 0.265625 0.28125 0.71875l0 9.6875q0 0.453125 -0.28125 0.734375q-0.265625 0.265625 -0.71875 0.265625zm7.534424 0q-0.921875 0 -1.625 -0.5q-0.703125 -0.5 -1.09375 -1.359375q-0.390625 -0.875 -0.390625 -2.0l0 -11.8125q0 -0.453125 0.265625 -0.71875q0.265625 -0.265625 0.703125 -0.265625q0.453125 0 0.71875 0.265625q0.265625 0.265625 0.265625 0.71875l0 11.8125q0 0.828125 0.3125 1.359375q0.328125 0.53125 0.84375 0.53125l0.53125 0q0.40625 0 0.640625 0.28125q0.234375 0.265625 0.234375 0.703125q0 0.453125 -0.359375 0.71875q-0.359375 0.265625 -0.921875 0.265625l-0.125 0zm6.270508 0q-0.921875 0 -1.625 -0.5q-0.703125 -0.5 -1.09375 -1.359375q-0.390625 -0.875 -0.390625 -2.0l0 -11.8125q0 -0.453125 0.265625 -0.71875q0.265625 -0.265625 0.703125 -0.265625q0.453125 0 0.71875 0.265625q0.265625 0.265625 0.265625 0.71875l0 11.8125q0 0.828125 0.3125 1.359375q0.328125 0.53125 0.84375 0.53125l0.53125 0q0.40625 0 0.640625 0.28125q0.234375 0.265625 0.234375 0.703125q0 0.453125 -0.359375 0.71875q-0.359375 0.265625 -0.921875 0.265625l-0.125 0zm5.645508 5.09375q-0.203125 0 -0.46875 -0.109375q-0.875 -0.375 -0.484375 -1.234375l6.625 -14.859375q0.40625 -0.8125 1.25 -0.46875q0.890625 0.375 0.484375 1.234375l-6.65625 14.84375q-0.234375 0.59375 -0.75 0.59375zm2.453125 -5.515625q-0.359375 0.140625 -0.6875 0.03125q-0.328125 -0.125 -0.53125 -0.5l-4.828125 -9.46875q-0.203125 -0.390625 -0.0625 -0.734375q0.140625 -0.34375 0.53125 -0.484375q0.359375 -0.171875 0.6875 -0.046875q0.34375 0.125 0.515625 0.484375l4.671875 9.484375q0.203125 0.375 0.140625 0.71875q-0.046875 0.34375 -0.4375 0.515625z" fill-rule="nonzero"/></g></svg>